# xmcd
#
# Track frame offsets: 
#        151
#        26984
#        52679
#        73592
#        93723
#        119248
#        143671
#        170248
#        196157
#        216212
#        238899
#
# Disc length: 3465 seconds
#
# Revision: 0
# Processed by: cddbd v1.5.2PL0 Copyright (c) Steve Scherf et al.
# Submitted via: ExactAudioCopyFreeDBPlugin 1.0
#
DISCID=ab0d870b
DTITLE=Zhu Lin - Someone Somewhere Sometimes
DYEAR=2017
DGENRE=
TTITLE0=In The Spring Breeze
TTITLE1=Someone Somewhere Sometimes
TTITLE2=The Misty Flowers
TTITLE3=In The Winter Night
TTITLE4=Mountain Poems
TTITLE5=Rekindling The Old Dreams
TTITLE6=Only In My Dream
TTITLE7=Between Dream And Reality
TTITLE8=There's Always A Way Out
TTITLE9=On The Riverbank
TTITLE10=All Of My Life
EXTD=
EXTT0=
EXTT1=
EXTT2=
EXTT3=
EXTT4=
EXTT5=
EXTT6=
EXTT7=
EXTT8=
EXTT9=
EXTT10=
PLAYORDER=
